<?xml version="1.0" encoding="UTF-8"?>
<svg width="1200px" height="628px" viewBox="0 0 1200 628" version="1.1" xmlns="http://www.w3.org/2000/svg" xmlns:xlink="http://www.w3.org/1999/xlink">
    <!-- Generator: Sketch 61.2 (89653) - https://sketch.com -->
    <title>Philosophy-bg</title>
    <desc>Created with Sketch.</desc>
    <defs>
        <polygon id="path-1" points="0 -0.005 1200 -0.005 1200 627.94 0 627.94"></polygon>
    </defs>
    <g id="Page-1" stroke="none" stroke-width="1" fill="none" fill-rule="evenodd">
        <g id="Philosophy-edit-layers" transform="translate(0.000000, -1.000000)">
            <g id="Philosophy-bg" transform="translate(0.000000, 1.000000)">
                <g id="Bg">
                    <mask id="mask-2" fill="white">
                        <use xlink:href="#path-1"></use>
                    </mask>
                    <g id="Clip-2"></g>
                    <polygon id="Fill-1" fill="#E5D3BC" mask="url(#mask-2)" points="0 627.94 1200 627.94 1200 -0.005 0 -0.005"></polygon>
                    <path d="M657.951,-643.217 L-333.444,348.179 M665.652,-635.516 L-325.743,355.88 M673.354,-627.815 L-318.042,363.581 M681.055,-620.114 L-310.341,371.282 M688.755,-612.413 L-302.64,378.983 M696.456,-604.712 L-294.939,386.684 M704.157,-597.011 L-287.238,394.385 M711.858,-589.31 L-279.537,402.086 M719.56,-581.609 L-271.836,409.787 M727.26,-573.908 L-264.135,417.488 M734.961,-566.207 L-256.434,425.189 M742.662,-558.506 L-248.733,432.89 M750.363,-550.805 L-241.032,440.591 M758.064,-543.104 L-233.332,448.292 M765.766,-535.403 L-225.63,455.993 M773.466,-527.702 L-217.929,463.694 M781.167,-520.001 L-210.229,471.395 M788.868,-512.299 L-202.527,479.096 M796.569,-504.599 L-194.826,486.797 M804.271,-496.898 L-187.125,494.498 M811.972,-489.197 L-179.424,502.199 M819.672,-481.496 L-171.723,509.9 M827.373,-473.795 L-164.022,517.601 M835.074,-466.094 L-156.321,525.302 M842.775,-458.393 L-148.62,533.003 M850.477,-450.692 L-140.919,540.704 M858.177,-442.991 L-133.218,548.405 M865.878,-435.29 L-125.518,556.106 M873.579,-427.589 L-117.816,563.807 M881.28,-419.888 L-110.115,571.508 M888.981,-412.187 L-102.415,579.209 M896.683,-404.486 L-94.713,586.91 M904.383,-396.785 L-87.012,594.611 M912.084,-389.084 L-79.312,602.312 M919.785,-381.383 L-71.61,610.013 M927.486,-373.682 L-63.909,617.714 M935.188,-365.981 L-56.209,625.415 M942.889,-358.28 L-48.507,633.117 M950.589,-350.579 L-40.806,640.817 M958.29,-342.878 L-33.105,648.518 M965.991,-335.177 L-25.404,656.219 M973.692,-327.476 L-17.703,663.92 M981.394,-319.775 L-10.002,671.621 M989.094,-312.074 L-2.301,679.322 M996.795,-304.373 L5.399,687.023 M1004.5,-296.672 L13.101,694.724 M1012.2,-288.971 L20.802,702.425 M1019.9,-281.27 L28.502,710.126 M1027.6,-273.569 L36.204,717.827 M1035.3,-265.868 L43.905,725.528 M1043,-258.167 L51.605,733.229 M1050.7,-250.466 L59.307,740.93 M1058.4,-242.765 L67.008,748.631 M1066.1,-235.064 L74.708,756.332 M1073.8,-227.362 L82.41,764.034 M1081.51,-219.662 L90.111,771.734 M1089.21,-211.961 L97.811,779.435 M1096.91,-204.26 L105.513,787.136 M1104.61,-196.559 L113.213,794.837 M1112.31,-188.858 L120.915,802.538 M1120.01,-181.157 L128.616,810.239 M1127.71,-173.456 L136.316,817.94 M1135.41,-165.755 L144.018,825.641 M1143.11,-158.054 L151.719,833.342" id="Stroke-3" stroke="#FFFFFE" stroke-width="0.75" mask="url(#mask-2)"></path>
                    <path d="M1150.82,-150.353 L159.419,841.043 M1158.52,-142.652 L167.121,848.744 M1166.22,-134.951 L174.822,856.445 M1173.92,-127.25 L182.522,864.146 M1181.62,-119.549 L190.224,871.847 M1189.32,-111.848 L197.925,879.548 M1197.02,-104.147 L205.625,887.249 M1204.72,-96.446 L213.327,894.951 M1212.42,-88.745 L221.028,902.651 M1220.12,-81.044 L228.729,910.352 M1227.83,-73.343 L236.43,918.053 M1235.53,-65.642 L244.13,925.754 M1243.23,-57.941 L251.832,933.455 M1250.93,-50.24 L259.533,941.156 M1258.63,-42.539 L267.233,948.857 M1266.33,-34.838 L274.935,956.558 M1274.03,-27.137 L282.636,964.259 M1281.73,-19.436 L290.336,971.96 M1289.43,-11.735 L298.038,979.661 M1297.13,-4.034 L305.739,987.362 M1304.83,3.667 L313.439,995.063 M1312.54,11.368 L321.141,1002.765 M1320.24,19.069 L328.842,1010.465 M1327.94,26.77 L336.542,1018.165 M1335.64,34.471 L344.244,1025.865 M1343.34,42.172 L351.944,1033.565 M1351.04,49.873 L359.646,1041.265 M1358.74,57.574 L367.347,1048.965 M1366.44,65.275 L375.047,1056.675 M1374.14,72.976 L382.749,1064.375 M1381.84,80.677 L390.45,1072.075 M1389.55,88.378 L398.15,1079.775 M1397.25,96.079 L405.852,1087.475 M1404.95,103.78 L413.553,1095.175 M1412.65,111.481 L421.253,1102.875 M1420.35,119.182 L428.955,1110.575 M1428.05,126.883 L436.656,1118.275 M1435.75,134.584 L444.356,1125.975 M1443.45,142.285 L452.058,1133.685 M1451.15,149.986 L459.759,1141.385 M1458.86,157.687 L467.459,1149.085 M1466.56,165.388 L475.161,1156.785 M1474.26,173.089 L482.861,1164.485 M1481.96,180.79 L490.563,1172.185 M1489.66,188.492 L498.264,1179.885 M1497.36,196.192 L505.964,1187.585 M1505.06,203.893 L513.666,1195.285 M1512.76,211.595 L521.367,1202.995 M1520.46,219.295 L529.067,1210.695 M1524.78,230.34 L533.381,1221.735 M1529.09,241.385 L537.694,1232.785 M1533.4,252.429 L542.007,1243.825 M1537.72,263.474 L546.321,1254.865 M1542.03,274.518 L550.634,1265.915" id="Stroke-4" stroke="#FFFFFE" stroke-width="0.75" mask="url(#mask-2)"></path>
                    <path d="M901.278,201.615 C898.342,141.781 848.902,94.171 788.34,94.171 C754.721,94.171 724.534,108.848 703.821,132.137 C657.535,104.238 603.306,88.179 545.32,88.179 C375.47,88.179 237.79,225.86 237.79,395.699 C237.79,396.05 237.8,396.4 237.8,396.749 C229.4,395.329 220.77,394.579 211.96,394.579 C126.73,394.579 57.64,463.68 57.64,548.909 C57.64,577.82 65.59,604.869 79.42,627.999 L1037.06,627.999 C1082.09,582.36 1109.89,519.68 1109.89,450.499 C1109.89,325.97 1019.82,222.485 901.278,201.615" id="Fill-5" fill="#DBC9AF" mask="url(#mask-2)"></path>
                </g>
                <path d="M879.365,545.041 L320.635,545.041 C310.309,545.041 301.938,536.67 301.938,526.344 C301.938,516.019 310.309,507.648 320.635,507.648 L879.365,507.648 C889.691,507.648 898.062,516.019 898.062,526.344 C898.062,536.67 889.691,545.041 879.365,545.041" id="Fill-7" fill="#6E6454"></path>
                <path d="M222.508,447.189 C184.406,447.189 152.274,472.743 142.312,507.648 L302.705,507.648 C292.743,472.743 260.61,447.189 222.508,447.189" id="Fill-11" fill="#C7B294"></path>
                <path d="M441.295,447.189 C403.193,447.189 371.061,472.743 361.099,507.648 L521.491,507.648 C511.529,472.743 479.397,447.189 441.295,447.189" id="Fill-12" fill="#C7B294"></path>
                <path d="M337.06,421.289 C282.635,421.289 236.738,457.791 222.508,507.648 L451.611,507.648 C437.381,457.791 391.484,421.289 337.06,421.289" id="Fill-13" fill="#C7B294"></path>
                <g id="Small-white-cloud" class="Small-white-cloud" transform="translate(94.039000, 41.820000)" fill="#FFFFFE">
                    <path d="M26.775,8.648 C14.054,8.648 3.326,17.179 -7.10542736e-15,28.833 L53.551,28.833 C50.225,17.179 39.497,8.648 26.775,8.648" id="Fill-14"></path>
                    <path d="M99.824,8.648 C87.102,8.648 76.374,17.179 73.048,28.833 L126.599,28.833 C123.274,17.179 112.545,8.648 99.824,8.648" id="Fill-15"></path>
                    <path d="M65.022,0 C46.851,0 31.526,12.187 26.775,28.833 L103.268,28.833 C98.517,12.187 83.193,0 65.022,0" id="Fill-16"></path>
                </g>
                <g id="Big-white-cloud" transform="translate(0.143000, 185.825000)" fill="#FFFFFE">
                    <path d="M104,97 L0,97 L0,30.3104272 C5.01697516,29.4469674 10.1735878,29 15.4399156,29 C28.2666155,29 40.4749209,31.6716463 51.5661264,36.4968629 C76.8704325,47.4983567 96.3498609,69.7045115 104,97" id="Fill-8"></path>
                    <path d="M257.578,28.677 C215.392,28.677 179.815,56.97 168.785,95.616 L346.371,95.616 C335.341,56.97 299.765,28.677 257.578,28.677" id="Fill-9"></path>
                    <path d="M142,0 C81.660706,0 30.7759933,40.9999895 15,97 L269,97 C253.224007,40.9999895 202.339294,0 142,0" id="Fill-10"></path>
                </g>
                <g id="Big-grey-cloud" transform="translate(873.542000, 40.495000)" fill="#B8B6C9">
                    <path d="M78.288,25.284 C41.093,25.284 9.725,50.23 -5.68434189e-14,84.304 L156.578,84.304 C146.848,50.23 115.483,25.284 78.288,25.284" id="Fill-17"></path>
                    <path d="M326.458,29.04 L326.458,84.301 L223.648,84.301 C230.408,60.621 247.628,41.341 269.998,31.79 C279.808,27.6 290.598,25.281 301.938,25.281 C310.488,25.281 318.718,26.6 326.458,29.04" id="Fill-18"></path>
                    <path d="M190.118,0 C136.988,0 92.179,35.634 78.288,84.304 L301.938,84.304 C288.048,35.634 243.248,0 190.118,0" id="Fill-19"></path>
                </g>
                <g id="Small-grey-cloud" transform="translate(941.778000, 107.074000)" fill="#A5A3B4">
                    <path d="M41.076,13.265 C21.561,13.265 5.103,26.354 0,44.232 L82.152,44.232 C77.052,26.354 60.592,13.265 41.076,13.265" id="Fill-20"></path>
                    <path d="M153.142,13.265 C133.622,13.265 117.162,26.354 112.062,44.232 L194.212,44.232 C189.112,26.354 172.652,13.265 153.142,13.265" id="Fill-21"></path>
                    <path d="M99.752,0 C71.872,0 48.365,18.695 41.076,44.232 L158.422,44.232 C151.132,18.695 127.622,0 99.752,0" id="Fill-22"></path>
                </g>
                <g id="Stone" transform="translate(469.913000, 480.628000)">
                    <polyline id="Fill-23" fill="#A4A5A1" points="48.172 16.73 48.482 15.73 76.832 2.84217094e-14 84.799 4.867 93.869 78.651 29.152 78.651 48.172 16.73"></polyline>
                    <polyline id="Fill-24" fill="#C3C3BE" points="116.382 24.16 116.402 24.17 127.822 78.651 93.869 78.651 84.799 4.867 116.382 24.16"></polyline>
                    <polyline id="Fill-25" fill="#E5E5E0" points="48.172 16.73 90.145 48.35 116.382 24.16 76.832 6.39488462e-14 48.482 15.73 48.172 16.73"></polyline>
                    <polyline id="Fill-26" fill="#A4A5A1" points="10.335 45.003 10.504 44.46 25.909 35.912 30.238 38.557 35.167 78.651 -2.84217094e-14 78.651 10.335 45.003"></polyline>
                    <polyline id="Fill-27" fill="#C3C3BE" points="47.4 49.04 47.411 49.046 53.616 78.651 35.167 78.651 30.238 38.557 47.4 49.04"></polyline>
                    <polyline id="Fill-28" fill="#E5E5E0" points="10.335 45.003 33.143 62.186 47.4 49.04 25.909 35.912 10.504 44.46 10.335 45.003"></polyline>
                </g>
                <g id="Computer" transform="translate(334.722000, 77.079000)">
                    <path d="M509.802,0 L20.753,0 C9.292,0 0,9.291 0,20.753 L0,374.068 C0,385.529 9.292,394.821 20.753,394.821 L242.819,394.821 C246.499,403.594 255.167,409.758 265.278,409.758 C275.389,409.758 284.057,403.594 287.737,394.821 L509.802,394.821 C521.264,394.821 530.555,385.529 530.555,374.068 L530.555,20.753 C530.555,9.291 521.264,0 509.802,0" id="Fill-29" fill="#24262F"></path>
                    <path d="M36.968,31.22 L36.968,363.601 L265.278,363.601 L265.278,67.826 C265.278,47.609 248.889,31.22 228.672,31.22 L36.968,31.22" id="Fill-30" fill="#FFFFFE"></path>
                    <path d="M493.588,31.22 L301.884,31.22 C281.667,31.22 265.278,47.609 265.278,67.826 L265.278,363.601 L493.588,363.601 L493.588,31.22" id="Fill-31" fill="#F4F4F1"></path>
                    <path d="M36.968,328.287 L36.968,363.601 L265.278,363.601 C265.278,344.097 249.467,328.287 229.965,328.287 L36.968,328.287" id="Fill-32" fill="#D0CFCA"></path>
                    <path d="M493.588,328.287 L300.591,328.287 C281.088,328.287 265.278,344.097 265.278,363.601 L493.588,363.601 L493.588,328.287" id="Fill-33" fill="#D0CFCA"></path>
                    <polygon id="Fill-34" fill="#A5A3B4" points="68.327 71.377 226.289 71.377 226.289 64.981 68.327 64.981"></polygon>
                    <polygon id="Fill-35" fill="#A5A3B4" points="68.327 84.807 226.289 84.807 226.289 78.412 68.327 78.412"></polygon>
                    <polygon id="Fill-36" fill="#A5A3B4" points="68.327 98.237 226.289 98.237 226.289 91.842 68.327 91.842"></polygon>
                    <polygon id="Fill-37" fill="#A5A3B4" points="68.327 111.667 226.289 111.667 226.289 105.271 68.327 105.271"></polygon>
                    <polygon id="Fill-38" fill="#A5A3B4" points="68.327 125.097 226.289 125.097 226.289 118.702 68.327 118.702"></polygon>
                    <polygon id="Fill-39" fill="#A5A3B4" points="68.327 138.527 226.289 138.527 226.289 132.131 68.327 132.131"></polygon>
                    <polygon id="Fill-40" fill="#A5A3B4" points="68.327 151.956 226.289 151.956 226.289 145.561 68.327 145.561"></polygon>
                    <polygon id="Fill-41" fill="#A5A3B4" points="68.327 165.387 226.289 165.387 226.289 158.992 68.327 158.992"></polygon>
                    <polygon id="Fill-42" fill="#A5A3B4" points="68.327 178.817 226.289 178.817 226.289 172.421 68.327 172.421"></polygon>
                    <polygon id="Fill-43" fill="#A5A3B4" points="68.327 192.246 178.965 192.246 178.965 185.851 68.327 185.851"></polygon>
                    <polygon id="Fill-44" fill="#A5A3B4" points="68.327 205.677 226.289 205.677 226.289 199.281 68.327 199.281"></polygon>
                    <polygon id="Fill-45" fill="#A5A3B4" points="68.327 219.106 226.289 219.106 226.289 212.711 68.327 212.711"></polygon>
                    <polygon id="Fill-46" fill="#A5A3B4" points="68.327 232.537 226.289 232.537 226.289 226.141 68.327 226.141"></polygon>
                    <polygon id="Fill-47" fill="#A5A3B4" points="68.327 245.966 226.289 245.966 226.289 239.572 68.327 239.572"></polygon>
                    <polygon id="Fill-48" fill="#A5A3B4" points="68.327 259.397 226.289 259.397 226.289 253.001 68.327 253.001"></polygon>
                    <polygon id="Fill-49" fill="#A5A3B4" points="68.327 272.827 226.289 272.827 226.289 266.431 68.327 266.431"></polygon>
                    <polygon id="Fill-50" fill="#A5A3B4" points="68.327 286.256 226.289 286.256 226.289 279.861 68.327 279.861"></polygon>
                    <polygon id="Fill-51" fill="#A5A3B4" points="68.327 299.687 196.313 299.687 196.313 293.291 68.327 293.291"></polygon>
                    <polygon id="Fill-52" fill="#A5A3B4" points="305.59 71.377 463.552 71.377 463.552 64.981 305.59 64.981"></polygon>
                    <polygon id="Fill-53" fill="#A5A3B4" points="305.59 84.807 463.552 84.807 463.552 78.412 305.59 78.412"></polygon>
                    <polygon id="Fill-54" fill="#A5A3B4" points="305.59 98.237 463.552 98.237 463.552 91.842 305.59 91.842"></polygon>
                    <polygon id="Fill-55" fill="#A5A3B4" points="305.59 111.667 463.552 111.667 463.552 105.271 305.59 105.271"></polygon>
                    <polygon id="Fill-56" fill="#A5A3B4" points="305.59 125.097 463.552 125.097 463.552 118.702 305.59 118.702"></polygon>
                    <polygon id="Fill-57" fill="#A5A3B4" points="305.59 138.527 463.552 138.527 463.552 132.131 305.59 132.131"></polygon>
                    <polygon id="Fill-58" fill="#A5A3B4" points="305.59 151.956 463.552 151.956 463.552 145.561 305.59 145.561"></polygon>
                    <polygon id="Fill-59" fill="#A5A3B4" points="305.59 165.387 463.552 165.387 463.552 158.992 305.59 158.992"></polygon>
                    <polygon id="Fill-60" fill="#A5A3B4" points="305.59 178.817 463.552 178.817 463.552 172.421 305.59 172.421"></polygon>
                    <polygon id="Fill-61" fill="#A5A3B4" points="305.59 192.246 463.552 192.246 463.552 185.851 305.59 185.851"></polygon>
                    <polygon id="Fill-62" fill="#A5A3B4" points="305.59 205.677 463.552 205.677 463.552 199.281 305.59 199.281"></polygon>
                    <polygon id="Fill-63" fill="#A5A3B4" points="305.59 219.106 400.24 219.106 400.24 212.104 305.59 212.104"></polygon>
                    <polygon id="Fill-64" fill="#A5A3B4" points="305.59 232.537 463.552 232.537 463.552 226.141 305.59 226.141"></polygon>
                    <polygon id="Fill-65" fill="#A5A3B4" points="305.59 245.966 463.552 245.966 463.552 239.572 305.59 239.572"></polygon>
                    <polygon id="Fill-66" fill="#A5A3B4" points="305.59 259.397 463.552 259.397 463.552 253.001 305.59 253.001"></polygon>
                    <polygon id="Fill-67" fill="#A5A3B4" points="305.59 272.827 463.552 272.827 463.552 266.431 305.59 266.431"></polygon>
                    <polygon id="Fill-68" fill="#A5A3B4" points="305.59 286.256 463.552 286.256 463.552 279.861 305.59 279.861"></polygon>
                    <polygon id="Fill-69" fill="#A5A3B4" points="305.59 299.687 433.576 299.687 433.576 293.291 305.59 293.291"></polygon>
                    <polyline id="Fill-70" fill="#B2532D" points="151.148 175.619 132.262 168.265 113.375 175.619 113.375 23.412 151.148 23.412 151.148 175.619"></polyline>
                    <path d="M264.158,162.193 L264.158,194.981 L289.309,169.821 L289.309,137.043 L264.158,162.193 Z M264.158,162.193 L264.158,194.981 L289.309,169.821 L289.309,137.043 L264.158,162.193 Z M264.158,162.193 L264.158,194.981 L289.309,169.821 L289.309,137.043 L264.158,162.193 Z M296.481,225.239 C295.201,225.442 293.912,225.597 292.594,225.752 C291.518,225.888 290.423,226.014 289.309,226.15 L289.309,102.685 C290.22,102.744 291.111,102.792 292.013,102.87 C293.534,103.005 295.036,103.17 296.539,103.393 C303.624,104.391 310.437,106.339 316.902,109.46 C317.948,109.964 318.975,110.497 320.003,111.059 C326.186,114.471 331.361,118.667 335.529,123.6 C339.707,128.504 342.866,134.155 345.047,140.522 C345.773,142.645 346.393,144.854 346.897,147.142 C348.564,154.663 349.195,162.184 348.681,169.665 C348.284,175.316 347.227,180.937 345.444,186.5 C340.569,201.717 330.499,212.416 316.165,219.22 C309.904,222.196 303.313,224.143 296.481,225.239 Z M264.158,226.072 C262.724,225.975 261.309,225.84 259.903,225.655 C256.676,225.248 253.497,224.619 250.367,223.785 C246.519,222.757 242.817,221.459 239.279,219.86 C232.582,216.846 226.506,212.736 221.204,207.26 C220.855,206.902 220.516,206.543 220.177,206.175 C215.738,201.339 212.345,195.921 209.942,189.98 C208.799,187.198 207.887,184.3 207.19,181.306 C205.707,174.928 204.912,168.551 204.951,162.193 C204.989,155.293 206.007,148.402 208.149,141.579 C212.918,126.362 222.978,115.76 237.341,109.101 C245.56,105.302 254.234,103.325 263.237,102.724 C263.519,102.704 263.809,102.724 264.158,102.724 L264.158,226.072 Z M374.578,146.493 C374.403,145.756 374.218,145.038 374.025,144.322 C371.796,136.064 368.084,128.824 363.035,122.534 C359.216,117.775 354.612,113.55 349.311,109.818 C349.156,109.712 349.001,109.596 348.836,109.489 C342.197,104.895 335.064,101.425 327.572,98.78 C323.928,97.491 320.197,96.405 316.407,95.475 C313.112,94.67 309.797,93.992 306.473,93.449 C301.016,92.558 295.521,92.015 289.967,91.821 C289.783,91.821 289.599,91.792 289.26,91.753 C289.347,88.69 289.144,85.599 290.946,82.894 C292.158,81.073 294.067,80.268 296.073,79.716 C300.309,78.562 304.68,78.339 309.022,78.01 C309.361,77.981 309.71,77.961 310.146,77.923 L310.146,68.512 L245.036,68.512 C245.046,71.265 245.104,74.017 245.055,76.769 C245.036,77.671 245.23,77.981 246.218,78.049 C250.067,78.301 253.914,78.601 257.645,79.677 C258.556,79.948 259.37,80.268 260.069,80.656 C262.414,81.945 263.625,83.98 263.984,87.14 C264.158,88.642 264.187,90.154 264.284,91.753 C262.811,91.85 261.464,91.937 260.117,92.044 C255.697,92.383 251.326,92.935 247.004,93.711 C237.651,95.397 228.56,98.14 219.789,102.142 C210.378,106.426 201.859,112.018 194.677,119.53 C185.868,128.746 180.343,139.64 178.192,152.201 C177.532,156.029 177.154,159.848 177.068,163.657 C176.903,170.664 177.746,177.622 179.704,184.514 C179.917,185.269 180.149,186.025 180.392,186.762 C182.95,194.622 186.953,201.561 192.274,207.658 C194.202,209.868 196.306,211.961 198.564,213.957 C201.065,216.158 203.672,218.154 206.385,219.966 C213.102,224.493 220.448,227.923 228.201,230.618 C228.279,230.647 228.357,230.676 228.434,230.695 C235.383,233.099 242.507,234.795 249.785,235.784 C250.018,235.822 250.251,235.851 250.483,235.88 C254.553,236.404 258.673,236.588 262.762,236.917 C263.199,236.956 263.645,236.917 264.304,236.917 C264.178,239.011 264.061,240.988 263.925,242.955 C263.897,243.42 263.771,243.886 263.683,244.351 C263.063,247.821 261.018,250.108 257.655,250.932 C254.747,251.639 251.762,252.017 248.797,252.444 C247.023,252.705 245.22,252.753 243.379,252.909 L243.379,262.261 L310.107,262.261 L310.107,252.909 C308.324,252.763 306.55,252.696 304.816,252.454 C301.937,252.056 299.039,251.727 296.219,251.068 C295.55,250.912 294.92,250.7 294.339,250.438 C291.867,249.332 290.258,247.287 289.813,244.284 C289.464,241.909 289.338,239.515 289.095,237.072 C289.551,237.005 289.793,236.947 290.026,236.947 C296.839,236.782 303.546,236.006 310.146,234.63 C314.43,233.738 318.674,232.585 322.872,231.199 C336.004,226.848 347.906,220.373 357.723,210.449 C367.163,200.902 372.988,189.486 375.295,176.256 C375.45,175.335 375.653,174.414 375.838,173.494 L375.838,152.802 C375.421,150.699 375.072,148.576 374.578,146.493 Z M264.158,162.193 L264.158,194.981 L289.309,169.821 L289.309,137.043 L264.158,162.193 Z M264.158,162.193 L264.158,194.981 L289.309,169.821 L289.309,137.043 L264.158,162.193 Z M264.158,162.193 L264.158,194.981 L289.309,169.821 L289.309,137.043 L264.158,162.193 Z M264.158,162.193 L264.158,194.981 L289.309,169.821 L289.309,137.043 L264.158,162.193 L264.158,162.193 Z" id="Phil-symbol" fill="#625D80"></path>
                    <path d="M264.158,102.996 L264.158,102.724 C263.809,102.724 263.519,102.704 263.237,102.724 C254.234,103.325 245.56,105.302 237.341,109.101 C222.978,115.76 212.918,126.362 208.149,141.579 C206.007,148.402 204.989,155.293 204.951,162.193 L180.392,186.762 C180.149,186.025 179.917,185.269 179.704,184.514 C177.746,177.622 176.903,170.664 177.068,163.657 L247.004,93.711 C251.326,92.935 255.697,92.383 260.117,92.044 C261.464,91.937 262.811,91.85 264.284,91.753 C264.187,90.154 264.158,88.642 263.984,87.14 C263.625,83.98 262.414,81.945 260.069,80.656 L272.202,68.512 L298.642,68.512 L264.158,102.996" id="Fill-72" fill="#353745"></path>
                    <path d="M220.177,206.175 L206.385,219.966 C203.672,218.154 201.065,216.158 198.564,213.957 C196.306,211.961 194.202,209.868 192.274,207.658 L209.942,189.98 C212.345,195.921 215.738,201.339 220.177,206.175" id="Fill-73" fill="#353745"></path>
                    <polyline id="Fill-74" fill="#353745" points="264.158 135.773 289.309 110.623 289.309 137.043 264.158 162.193 264.158 135.773"></polyline>
                    <path d="M327.572,98.78 L316.902,109.46 C310.437,106.339 303.624,104.391 296.539,103.393 L306.473,93.449 C309.797,93.992 313.112,94.67 316.407,95.475 C320.197,96.405 323.928,97.491 327.572,98.78" id="Fill-75" fill="#353745"></path>
                    <path d="M259.903,225.655 L249.785,235.784 C242.507,234.795 235.383,233.099 228.434,230.695 L239.279,219.86 C242.817,221.459 246.519,222.757 250.367,223.785 C253.497,224.619 256.676,225.248 259.903,225.655" id="Fill-76" fill="#353745"></path>
                    <polyline id="Fill-77" fill="#353745" points="264.158 194.981 289.309 169.821 289.309 196.25 264.158 221.401 264.158 194.981"></polyline>
                    <path d="M363.035,122.534 L345.047,140.522 C342.866,134.155 339.707,128.504 335.529,123.6 L349.311,109.818 C354.612,113.55 359.216,117.775 363.035,122.534" id="Fill-78" fill="#353745"></path>
                    <path d="M375.838,152.802 L375.838,168.929 L310.146,234.63 C303.546,236.006 296.839,236.782 290.026,236.947 C289.793,236.947 289.551,237.005 289.095,237.072 C289.338,239.515 289.464,241.909 289.813,244.284 C290.258,247.287 291.867,249.332 294.339,250.438 L282.515,262.261 L256.085,262.261 L292.594,225.752 C293.912,225.597 295.201,225.442 296.481,225.239 C303.313,224.143 309.904,222.196 316.165,219.22 C330.499,212.416 340.569,201.717 345.444,186.5 C347.227,180.937 348.284,175.316 348.681,169.665 L374.025,144.322 C374.218,145.038 374.403,145.756 374.578,146.493 C375.072,148.576 375.421,150.699 375.838,152.802" id="Fill-79" fill="#353745"></path>
                </g>
                <g id="Statue" transform="translate(676.435000, 56.238000)">
                    <path d="M111.64,209.24 L16.549,209.24 C13.311,209.24 10.602,206.785 10.284,203.564 L3.174,131.625 C2.655,126.364 6.204,121.565 11.386,120.52 L63.703,109.979 L116.776,120.538 C121.97,121.571 125.533,126.378 125.012,131.648 L117.906,203.564 C117.587,206.785 114.878,209.24 111.64,209.24" id="Fill-81" fill="#A4A5A1"></path>
                    <polygon id="Fill-80" fill="#8C8D89" points="32.598 298.677 95.591 298.677 95.591 201.193 32.598 201.193"></polygon>
                    <path d="M98.163,234.621 L30.026,234.621 C25.111,234.621 21.126,230.636 21.126,225.72 C21.126,220.804 25.111,216.819 30.026,216.819 L98.163,216.819 C103.079,216.819 107.063,220.804 107.063,225.72 C107.063,230.636 103.079,234.621 98.163,234.621" id="Fill-82" fill="#A4A5A1"></path>
                    <path d="M111.724,50.61 C111.724,84.22 90.394,121.72 64.094,121.72 C37.794,121.72 16.464,84.22 16.464,50.61 C16.464,49.13 16.504,47.68 16.594,46.27 C17.064,37.99 18.904,30.82 21.835,24.76 C29.774,8.3 45.714,0 64.094,0 C82.474,0 98.415,8.3 106.354,24.76 C109.304,30.85 111.144,38.06 111.604,46.39 C111.684,47.77 111.724,49.17 111.724,50.61" id="Fill-83" fill="#A4A5A1"></path>
                    <polygon id="Fill-84" fill="#A4A5A1" points="-5.68434189e-14 466.533 128.189 466.533 128.189 254.532 -5.68434189e-14 254.532"></polygon>
                    <path d="M6.31,55.004 C6.31,62.189 10.868,70.203 16.491,70.203 C22.113,70.203 26.67,62.189 26.67,55.004 C26.67,47.82 22.113,44.186 16.491,44.186 C10.868,44.186 6.31,47.82 6.31,55.004" id="Fill-95" fill="#A4A5A1"></path>
                    <path d="M20.412,138.17 C20.412,107.341 39.969,72.952 64.094,72.952 C88.22,72.952 107.778,107.341 107.778,138.17 C107.778,168.999 88.22,184.594 64.094,184.594 C39.969,184.594 20.412,168.999 20.412,138.17" id="Fill-97" fill="#8C8D89"></path>
                    <polygon id="Fill-85" fill="#8C8D89" points="23.763 361.153 104.425 361.153 104.425 280.491 23.763 280.491"></polygon>
                    <polygon id="Fill-86" fill="#A4A5A1" points="34.125 296.26 94.064 296.26 94.064 290.852 34.125 290.852"></polygon>
                    <polygon id="Fill-87" fill="#A4A5A1" points="34.125 306.441 94.064 306.441 94.064 301.032 34.125 301.032"></polygon>
                    <polygon id="Fill-88" fill="#A4A5A1" points="34.125 316.622 94.064 316.622 94.064 311.212 34.125 311.212"></polygon>
                    <polygon id="Fill-89" fill="#A4A5A1" points="34.125 326.801 94.064 326.801 94.064 321.393 34.125 321.393"></polygon>
                    <polygon id="Fill-90" fill="#A4A5A1" points="34.125 336.982 94.064 336.982 94.064 331.574 34.125 331.574"></polygon>
                    <polygon id="Fill-91" fill="#A4A5A1" points="34.125 347.163 94.064 347.163 94.064 341.754 34.125 341.754"></polygon>
                    <path d="M111.604,46.39 C105.495,45.73 100.734,40.55 100.734,34.26 L100.734,28.77 C100.734,26.56 102.535,24.76 104.745,24.76 L106.354,24.76 C109.304,30.85 111.144,38.06 111.604,46.39" id="Fill-92" fill="#8C8D89"></path>
                    <path d="M26.674,28.77 L26.674,34.26 C26.674,40.28 22.325,45.27 16.594,46.27 C17.064,37.99 18.904,30.82 21.835,24.76 L22.654,24.76 C24.875,24.76 26.674,26.56 26.674,28.77" id="Fill-93" fill="#8C8D89"></path>
                    <path d="M121.095,55.004 C121.095,62.189 116.538,70.203 110.916,70.203 C105.294,70.203 100.735,62.189 100.735,55.004 C100.735,47.82 105.294,44.186 110.916,44.186 C116.538,44.186 121.095,47.82 121.095,55.004" id="Fill-94" fill="#A4A5A1"></path>
                    <path d="M110.916,65.217 C110.916,98.26 89.948,135.12 64.094,135.12 C38.241,135.12 17.274,98.26 17.274,65.217 C17.274,62.422 17.426,59.755 17.72,57.194 C20.856,84.916 40.425,98.918 64.094,98.918 C87.763,98.918 107.333,84.916 110.469,57.194 C110.762,59.755 110.916,62.422 110.916,65.217" id="Fill-96" fill="#8C8D89"></path>
                    <path d="M72.732,98.131 L54.673,98.131 C51.551,98.131 49.02,95.6 49.02,92.477 C49.02,89.355 51.551,86.823 54.673,86.823 L72.732,86.823 C75.855,86.823 78.386,89.355 78.386,92.477 C78.386,95.6 75.855,98.131 72.732,98.131" id="Fill-98" fill="#A4A5A1"></path>
                    <path d="M64.094,70.203 L64.094,70.203 C60.03,70.203 56.809,66.774 57.063,62.718 L58.611,37.975 C58.695,36.626 59.814,35.575 61.166,35.575 L67.023,35.575 C68.375,35.575 69.494,36.626 69.578,37.975 L71.126,62.718 C71.379,66.774 68.159,70.203 64.094,70.203" id="Fill-99" fill="#8C8D89"></path>
                </g>
                <g id="medium-grey-cloud" transform="translate(103.250000, 84.310000)" fill="#A5A3B4">
                    <path d="M54.088,17.469 C28.391,17.469 6.719,34.703 0,58.245 L108.177,58.245 C101.458,34.703 79.787,17.469 54.088,17.469" id="Fill-100"></path>
                    <path d="M201.65,17.469 C175.952,17.469 154.28,34.703 147.561,58.245 L255.738,58.245 C249.02,34.703 227.348,17.469 201.65,17.469" id="Fill-101"></path>
                    <path d="M131.348,0 C94.641,0 63.686,24.619 54.088,58.245 L208.607,58.245 C199.01,24.619 168.055,0 131.348,0" id="Fill-102"></path>
                </g>
                <g id="Feather" transform="translate(349.044674, 179.436088)">
                    <path d="M29.8693263,1.0929117 L97.9213263,283.663912 L58.1003263,284.840912 L32.8033263,179.803912 L60.6713263,178.749912 L30.6193263,170.732912 L17.1793263,114.928912 L45.4883263,110.280912 L15.0583263,106.119912 L12.3513263,94.8819117 L40.6603263,90.2339117 L10.2303263,86.0739117 L1.09232628,48.1279117 C-3.94867372,27.1969117 8.93732628,6.1339117 29.8693263,1.0929117" id="Fill-103" fill="#625D80"></path>
                    <path d="M96.3923263,110.786912 L74.6773263,130.344912 L98.4423263,119.303912 L101.934326,133.798912 L80.2193263,153.356912 L103.984326,142.314912 L120.233326,209.786912 L98.5193263,229.344912 L122.285326,218.302912 L125.694326,232.458912 L100.413326,245.880912 L127.665326,240.643912 L133.912326,266.582912 L97.9213263,283.663912 L29.8693263,1.0929117 C50.8103263,-3.9500883 71.8633263,8.9389117 76.9043263,29.8699117 L96.3923263,110.786912" id="Fill-104" fill="#4E4A64"></path>
                    <path d="M112.940326,346.020912 L112.940326,346.020912 C110.959326,346.497912 108.967326,345.278912 108.490326,343.298912 L39.7263263,57.7709117 C39.2493263,55.7909117 40.4693263,53.7989117 42.4493263,53.3219117 C44.4303263,52.8449117 46.4223263,54.0639117 46.8993263,56.0439117 L115.663326,341.570912 C116.140326,343.551912 114.921326,345.543912 112.940326,346.020912" id="Fill-105" fill="#FFFFFE"></path>
                </g>
                <g id="Tree" transform="translate(824.543000, 170.252000)">
                    <path d="M141.45,245.843 L106.27,211.839 M141.45,106.108 L141.45,371.973 M200.647,202.608 L141.45,289.079" id="Stroke-106" stroke="#625D80" stroke-width="7" stroke-linecap="round" stroke-linejoin="round"></path>
                    <path d="M261.977,111.18 L170.119,248.127 C170.119,248.127 219.247,236.633 244.617,198.816 C269.977,160.999 261.977,111.18 261.977,111.18" id="Fill-107" fill="#BD6942"></path>
                    <path d="M187.477,160.49 C162.113,198.308 170.119,248.127 170.119,248.127 L261.977,111.18 C261.977,111.18 212.847,122.674 187.477,160.49" id="Fill-108" fill="#DF794C"></path>
                    <path d="M121.531,226.066134 L-5.68434189e-14,114.611 C-5.68434189e-14,114.611 3.955,164.914 37.515,195.692 C71.074,226.469 121.531,226.066134 121.531,226.066134" id="Fill-109" fill="#BD6942"></path>
                    <path d="M84.017,144.986 C50.457,114.208 -5.68434189e-14,114.610866 -5.68434189e-14,114.610866 L121.531,226.066 C121.531,226.066 117.577,175.763 84.017,144.986" id="Fill-110" fill="#DF794C"></path>
                    <path d="M106.274,82.122 C105.845,127.656 139.895,164.893 139.895,164.893 L141.45,0 C141.45,0 106.703,36.588 106.274,82.122" id="Fill-112" fill="#DF794C"></path>
                    <path d="M141.45,0 L139.895,164.893 C139.895,164.893 174.643,128.304 175.071,82.77 C175.497,37.237 141.45,0 141.45,0" id="Fill-111" fill="#BD6942"></path>
                </g>
                <g id="Stones-on-the-right" transform="translate(752.953000, 505.358000)">
                    <path d="M104.511,17.011 C79.485,17.011 58.38,33.796 51.836,56.721 L157.185,56.721 C150.642,33.796 129.536,17.011 104.511,17.011" id="Fill-113" fill="#DF794C"></path>
                    <path d="M248.217,17.011 C223.187,17.011 202.082,33.796 195.539,56.721 L300.887,56.721 C294.347,33.796 273.237,17.011 248.217,17.011" id="Fill-114" fill="#DF794C"></path>
                    <path d="M179.749,7.10542736e-15 C144.003,7.10542736e-15 113.857,23.975 104.511,56.721 L254.987,56.721 C245.643,23.975 215.496,7.10542736e-15 179.749,7.10542736e-15" id="Fill-115" fill="#DF794C"></path>
                    <path d="M106.691,40.423 C124.434,40.423 139.398,52.323 144.036,68.577 L69.344,68.577 C73.984,52.323 88.946,40.423 106.691,40.423" id="Fill-116" fill="#8B87A8"></path>
                    <path d="M53.346,28.361 C78.691,28.361 100.064,45.359 106.691,68.577 L0,68.577 C6.627,45.359 28.001,28.361 53.346,28.361" id="Fill-117" fill="#8B87A8"></path>
                </g>
                <g id="Stones-on-the-left" transform="translate(134.408000, 513.402000)" fill="#8B87A8">
                    <path d="M56.213,18.154 C29.506,18.154 6.982,36.067 1.42108547e-14,60.533 L112.427,60.533 C105.444,36.067 82.921,18.154 56.213,18.154" id="Fill-118"></path>
                    <path d="M136.509,-4.97379915e-14 C98.36,-4.97379915e-14 66.187,25.586 56.213,60.533 L216.803,60.533 C206.829,25.586 174.657,-4.97379915e-14 136.509,-4.97379915e-14" id="Fill-119"></path>
                </g>
                <g id="Human" transform="translate(528.267876, 383.040320)">
                    <path d="M42.1181244,182.57668 C41.9821244,182.51168 41.8501244,182.43068 41.7251244,182.33568 C40.7211244,181.57168 40.5281244,180.13868 41.2921244,179.13568 L51.2441244,166.06768 C52.0081244,165.06468 53.4431244,164.86968 54.4451244,165.63368 C55.4481244,166.39868 55.6421244,167.83068 54.8781244,168.83468 L44.9261244,181.90268 C44.2571244,182.78168 43.0751244,183.03968 42.1181244,182.57668" id="Fill-120" fill="#753D35"></path>
                    <path d="M42.6511244,176.16368 C42.6511244,176.16368 37.3991244,179.14768 38.2461244,180.29068 C39.0941244,181.43468 52.5601244,196.70968 53.3301244,196.15168 C55.9621244,194.24468 46.7561244,180.06768 45.4021244,179.10068 C44.0491244,178.13268 43.4001244,175.71568 42.6511244,176.16368" id="Fill-121" fill="#7C76A4"></path>
                    <path d="M45.4941244,10.2946803 C45.4941244,10.2946803 35.6621244,3.81168029 35.3921244,0.858680286 C35.1221244,-2.09531971 45.1781244,3.01568029 48.2631244,9.43168029 L45.4941244,10.2946803" id="Fill-122" fill="#753D35"></path>
                    <path d="M43.8331244,12.1516803 C45.2531244,10.7496803 46.6611244,9.29968029 48.0181244,7.85368029 C75.5201244,35.3196803 51.2431244,51.7006803 22.0981244,40.9356803 C17.6401244,39.2886803 18.1301244,37.8766803 19.7001244,34.5676803 C19.2491244,34.0276803 19.2271244,34.0506803 19.7001244,34.5676803 C21.2701244,31.2566803 23.1161244,30.9586803 26.7231244,32.5436803 C50.3101244,42.9116803 62.3611244,33.7006803 43.8331244,12.1516803" id="Fill-123" fill="#E39169"></path>
                    <path d="M64.4721244,186.52268 C64.3251244,186.48968 64.1781244,186.43968 64.0351244,186.37468 C62.8861244,185.85568 62.3771244,184.50168 62.8971244,183.35268 L69.6701244,168.38868 C70.1901244,167.23968 71.5451244,166.72968 72.6921244,167.24868 C73.8421244,167.76968 74.3521244,169.12268 73.8321244,170.27168 L67.0581244,185.23668 C66.6031244,186.24268 65.5081244,186.75868 64.4721244,186.52268" id="Fill-124" fill="#753D35"></path>
                    <path d="M49.7951244,177.52868 C48.1131244,175.55668 46.5421244,173.49368 44.9831244,171.43768 C81.9641244,132.36868 84.9601244,86.6276803 17.3411244,103.44068 C10.5351244,105.13268 6.17312443,101.73468 3.36712443,96.1736803 C1.95012443,93.3666803 3.04312443,89.8716803 1.92112443,86.9786803 C81.3071244,74.4666803 105.693124,119.07168 49.7951244,177.52868" id="Fill-125" fill="#625D80"></path>
                    <path d="M4.42712443,86.7246803 L4.03012443,78.1346803 L25.5171244,79.8306803 L26.2021244,84.4996803 C82.9621244,82.5296803 100.421124,116.59268 72.1561244,178.41468 C69.8951244,177.18468 67.7001244,175.85868 65.5431244,174.45268 C90.6441244,118.13268 76.1941244,88.6096803 17.2971244,103.70768 C11.3691244,105.22768 5.24312443,101.99568 3.25612443,96.2066803 C2.25312443,93.2846803 3.06112443,90.0546803 2.13512443,87.0996803 C2.90712443,86.9666803 3.66612443,86.8476803 4.42712443,86.7246803" id="Fill-126" fill="#625D80"></path>
                    <path d="M63.5561244,180.15268 C63.5561244,180.15268 59.1051244,184.23668 60.1871244,185.16068 C61.2691244,186.08468 77.8141244,197.95768 78.4391244,197.24268 C80.5771244,194.79368 68.4301244,183.03768 66.8951244,182.39868 C65.3591244,181.75868 64.1851244,179.54768 63.5561244,180.15268" id="Fill-127" fill="#7C76A4"></path>
                    <path d="M1.96212443,90.6736803 C3.10412443,90.4926803 4.40412443,90.3566803 5.94112443,90.3236803 L9.05112443,90.3456803 C9.79712443,90.3796803 10.6001244,90.4356803 11.4481244,90.5156803 L29.6961244,91.4766803 C23.4551244,61.5026803 24.4161244,47.2226803 27.3901244,39.5906803 C28.9161244,35.6566803 28.2491244,31.2126803 25.5471244,27.9676803 L24.4951244,26.7016803 C19.6001244,20.8226803 10.2041244,22.1116803 7.12912443,29.1206803 C6.10012443,31.4616803 5.10512443,34.1866803 4.22312443,37.3076803 C0.0621244348,52.1526803 -1.63387557,68.9426803 1.96212443,90.6736803" id="Fill-128" fill="#EDAD8B"></path>
                    <path d="M18.7731244,12.9266803 C18.3781244,19.8256803 22.8631244,25.6936803 27.0791244,25.9346803 C31.2951244,26.1756803 33.6441244,20.6996803 34.0391244,13.8006803 C34.4341244,6.90268029 31.2181244,3.19668029 27.0021244,2.95468029 C22.7861244,2.71268029 19.1681244,6.02868029 18.7731244,12.9266803" id="Fill-129" fill="#753D35"></path>
                    <path d="M15.5301244,15.1216803 C15.4381244,16.7286803 16.9151244,18.8726803 18.0771244,18.9396803 C19.2401244,19.0066803 19.6061244,17.7216803 19.6971244,16.1156803 C19.7901244,14.5096803 18.9331244,12.9526803 17.7701244,12.8866803 C16.6071244,12.8206803 15.6221244,13.5166803 15.5301244,15.1216803" id="Fill-130" fill="#753D35"></path>
                    <path d="M18.0231244,8.47568029 C18.0231244,8.47568029 19.7331244,4.13968029 23.2821244,2.74168029 C26.8301244,1.34368029 33.4771244,1.99968029 34.5671244,8.19768029 C34.5671244,8.19768029 34.9391244,12.6706803 29.5041244,12.6616803 C24.0701244,12.6526803 25.3851244,9.95868029 22.4331244,12.2566803 C19.4811244,14.5546803 17.3851244,12.2876803 16.8171244,12.8316803 L18.0231244,8.47568029" id="Fill-131" fill="#161921"></path>
                    <path d="M16.8451244,14.0436803 L24.1021244,14.0706803 C24.0991244,15.0636803 23.9041244,24.5086803 23.1811244,28.0026803 C22.8081244,29.0646803 20.9651244,29.3816803 19.0671244,28.7126803 C17.3601244,28.1116803 16.2001244,26.9186803 16.2531244,25.9126803 L16.2441244,25.9096803 C16.6771244,23.8156803 16.8321244,17.5156803 16.8451244,14.0436803" id="Fill-132" fill="#753D35"></path>
                    <path d="M32.6081244,20.8066803 C32.6081244,20.8066803 32.5101244,20.7916803 32.3331244,20.7676803 C30.9121244,20.5706803 24.3981244,19.7686803 22.5291244,21.3326803 C20.4261244,23.0916803 25.6171244,22.3266803 27.5371244,21.6186803 C29.4571244,20.9116803 30.4211244,21.9076803 31.6221244,22.3436803 C32.8221244,22.7806803 34.1811244,21.8776803 32.6081244,20.8066803" id="Fill-133" fill="#161921"></path>
                    <path d="M32.5391244,52.0396803 C32.5391244,52.0396803 31.6591244,39.7046803 33.9471244,37.5926803 C36.2361244,35.4816803 38.4021244,47.1256803 35.0271244,53.7956803 L32.5391244,52.0396803" id="Fill-134" fill="#753D35"></path>
                    <path d="M31.7991244,49.4946803 C33.6731244,50.2226803 35.5591244,50.9536803 37.4561244,51.5886803 C19.9721244,94.1266803 -8.81487557,64.9806803 6.45512443,32.3646803 C8.79012443,27.3746803 9.57312443,28.3606803 13.3401244,30.0796803 C13.9661244,29.7406803 13.9081244,29.6946803 13.3401244,30.0796803 C17.1071244,31.7986803 16.5041244,34.1656803 14.6171244,37.3666803 C2.28312443,58.2856803 16.0821244,83.1226803 31.7991244,49.4946803" id="Fill-135" fill="#E39169"></path>
                    <path d="M19.9471244,31.0486803 C18.6961244,27.1066803 18.0391244,23.3306803 18.0901244,20.3366803 C18.4711244,18.7116803 19.3901244,16.8166803 20.4411244,16.6156803 C21.9811244,16.3176803 22.1731244,17.7466803 23.3861244,20.4246803 C24.5921244,23.1016803 28.5101244,25.5156803 32.3181244,20.8716803 C33.6271244,19.2766803 33.6561244,20.3786803 33.4071244,21.7316803 L33.4091244,21.7286803 C33.4091244,21.7286803 34.6711244,26.9086803 33.1411244,29.2526803 C31.6101244,31.5976803 34.0771244,33.3806803 32.6391244,35.4036803 C31.2001244,37.4256803 28.4741244,40.5836803 25.5751244,37.9236803 C22.6761244,35.2636803 21.1981244,34.9926803 19.9471244,31.0486803" id="Fill-136" fill="#161921"></path>
                </g>
                <g id="Eye" transform="translate(172.465000, 374.336000)">
                    <g transform="translate(0.000000, 0.000000)">
                        <path d="M188.889,48.687 C188.889,48.687 146.605,97.374 94.445,97.374 C42.285,97.374 1.42108547e-14,48.687 1.42108547e-14,48.687 C1.42108547e-14,48.687 42.285,0 94.445,0 C146.605,0 188.889,48.687 188.889,48.687" id="Fill-137" fill="#E68E64"></path>
                        <path d="M52.805,48.687 C52.805,25.69 71.448,7.047 94.445,7.047 C117.442,7.047 136.084,25.69 136.084,48.687 C136.084,71.684 117.442,90.326 94.445,90.326 C71.448,90.326 52.805,71.684 52.805,48.687" id="Fill-138" fill="#753D35"></path>
                        <path d="M75.528,48.687 C75.528,38.239 83.997,29.77 94.445,29.77 C104.892,29.77 113.362,38.239 113.362,48.687 C113.362,59.135 104.892,67.604 94.445,67.604 C83.997,67.604 75.528,59.135 75.528,48.687" id="Fill-139" fill="#24262F"></path>
                        <path d="M101.18,30.419 C101.18,25.832 104.898,22.113 109.485,22.113 C114.073,22.113 117.791,25.832 117.791,30.419 C117.791,35.007 114.073,38.725 109.485,38.725 C104.898,38.725 101.18,35.007 101.18,30.419" id="Fill-140" fill="#FFFFFE"></path>
                    </g>
                </g>
                <g id="Stars" transform="translate(110.278000, 142.366000)" fill="#FFFFFE">
                    <path d="M880.352,353.666 C886.17,353.666 890.892,348.949 890.892,343.129 C890.892,348.949 895.602,353.666 901.422,353.666 C895.602,353.666 890.892,358.382 890.892,364.202 C890.892,358.382 886.17,353.666 880.352,353.666" id="Fill-142"></path>
                    <path d="M0,325.537 C5.819,325.537 10.536,320.82 10.536,315 C10.536,320.82 15.254,325.537 21.073,325.537 C15.254,325.537 10.536,330.254 10.536,336.073 C10.536,330.254 5.819,325.537 0,325.537" id="Fill-144"></path>
                    <path d="M899.502,321.911 C902.852,321.911 905.562,319.197 905.562,315.849 C905.562,319.197 908.282,321.911 911.622,321.911 C908.282,321.911 905.562,324.625 905.562,327.972 C905.562,324.625 902.852,321.911 899.502,321.911" id="Fill-147"></path>
                    <path d="M577.255,192.779 C583.075,192.779 587.791,188.061 587.791,182.243 C587.791,188.061 592.508,192.779 598.327,192.779 C592.508,192.779 587.791,197.496 587.791,203.315 C587.791,197.496 583.075,192.779 577.255,192.779" id="Fill-141"></path>
                    <path d="M732.802,110.332 C736.15,110.332 738.864,107.618 738.864,104.271 C738.864,107.618 741.577,110.332 744.925,110.332 C741.577,110.332 738.864,113.046 738.864,116.394 C738.864,113.046 736.15,110.332 732.802,110.332" id="Fill-145"></path>
                    <path d="M612.669,62.35 C618.489,62.35 623.205,57.633 623.205,51.814 C623.205,57.633 627.923,62.35 633.742,62.35 C627.923,62.35 623.205,67.067 623.205,72.886 C623.205,67.067 618.489,62.35 612.669,62.35" id="Fill-143"></path>
                    <path d="M353.573,6.09 C356.921,6.09 359.635,3.376 359.635,0.028 C359.635,3.376 362.348,6.09 365.696,6.09 C362.348,6.09 359.635,8.804 359.635,12.151 C359.635,8.804 356.921,6.09 353.573,6.09" id="Fill-146"></path>
                    <path d="M597.815,42.645 C601.162,42.645 603.876,39.931 603.876,36.584 C603.876,39.931 606.59,42.645 609.939,42.645 C606.59,42.645 603.876,45.359 603.876,48.707 C603.876,45.359 601.162,42.645 597.815,42.645" id="Fill-148"></path>
                </g>
            </g>
        </g>
    </g>
</svg>