<?xml version="1.0" standalone="no"?>
<!DOCTYPE svg PUBLIC "-//W3C//DTD SVG 20010904//EN"
 "http://www.w3.org/TR/2001/REC-SVG-20010904/DTD/svg10.dtd">
<svg version="1.0" xmlns="http://www.w3.org/2000/svg"
 width="300.000000pt" height="71.000000pt" viewBox="0 0 300.000000 71.000000"
 preserveAspectRatio="xMidYMid meet">
<metadata>
Created by potrace 1.10, written by Peter Selinger 2001-2011
</metadata>
<g transform="translate(0.000000,71.000000) scale(0.100000,-0.100000)"
fill="#000000" stroke="none">
<path d="M115 633 c44 -11 45 -15 45 -253 0 -238 -1 -242 -45 -253 -11 -2 52
-5 140 -6 l160 -1 21 60 c23 66 18 81 -9 24 -22 -45 -66 -64 -152 -64 l-65 0
0 234 c0 244 1 248 45 259 11 2 -20 5 -70 5 -49 0 -81 -3 -70 -5z"/>
<path d="M1038 567 c-104 -30 -158 -105 -158 -220 0 -106 33 -167 115 -210 32
-17 57 -22 125 -22 92 0 143 18 186 67 23 24 41 128 24 128 -6 0 -10 -12 -10
-28 0 -131 -209 -199 -321 -105 -106 90 -87 297 34 359 38 20 147 20 185 0 36
-19 67 -54 80 -91 12 -36 15 -11 5 49 -5 33 -12 41 -49 58 -57 25 -156 32
-216 15z"/>
<path d="M1545 572 c-139 -3 -148 -4 -117 -17 l32 -14 0 -194 c0 -203 -1 -209
-45 -220 -11 -2 50 -5 136 -6 l155 -1 22 52 c24 58 22 77 -3 28 -22 -42 -68
-60 -155 -60 l-70 0 0 95 0 95 75 0 c69 0 76 -2 85 -22 7 -18 9 -9 9 37 1 54
-1 57 -12 36 -11 -21 -19 -24 -84 -25 l-73 -1 0 91 c0 50 2 93 4 95 2 2 44 2
93 -1 82 -5 88 -7 91 -27 6 -41 22 -24 22 22 0 25 -3 44 -7 43 -5 -1 -75 -4
-158 -6z"/>
<path d="M2410 568 c-2 -58 -60 -411 -69 -422 -7 -8 -22 -17 -34 -19 -12 -2
12 -5 53 -5 54 -1 69 2 53 8 -13 5 -23 15 -22 22 0 7 8 79 17 159 l17 147 90
-174 c49 -96 93 -174 97 -174 5 0 8 8 8 18 0 16 151 334 156 329 2 -1 10 -59
19 -127 8 -69 18 -140 21 -157 5 -28 3 -34 -17 -42 -18 -7 -2 -10 61 -9 68 0
79 2 54 9 -18 5 -34 15 -37 22 -3 7 -17 101 -32 207 -15 107 -29 202 -32 210
-3 8 -48 -72 -102 -178 l-96 -193 -98 191 c-54 104 -100 190 -103 190 -2 0 -4
-6 -4 -12z"/>
<path d="M406 559 c39 -11 47 -21 128 -149 l67 -105 -3 -80 c-3 -73 -5 -80
-28 -92 -22 -11 -16 -13 55 -13 71 0 77 2 55 13 -23 12 -25 19 -28 91 l-3 78
73 115 c60 95 80 119 113 134 l40 19 -85 -1 c-61 0 -79 -3 -62 -9 12 -5 22
-15 22 -22 -1 -7 -27 -57 -59 -111 l-58 -99 -57 101 c-31 56 -56 105 -56 110
0 4 10 13 23 19 17 8 2 11 -73 10 -72 0 -88 -2 -64 -9z"/>
<path d="M1820 557 c25 -12 25 -14 30 -177 4 -138 8 -170 24 -196 27 -46 70
-66 145 -71 55 -4 74 -1 111 19 75 39 84 66 88 255 l4 162 26 10 c22 8 12 9
-48 9 -62 0 -70 -1 -47 -10 l27 -10 0 -161 c0 -145 -2 -166 -20 -195 -27 -44
-80 -66 -144 -59 -41 4 -55 11 -82 40 -39 42 -47 89 -42 257 3 111 4 115 28
127 22 11 17 13 -50 13 -67 0 -72 -2 -50 -13z"/>
</g>
</svg>
